<?xml version="1.0" encoding="utf-8"?>
<!-- Generator: Adobe Illustrator 21.0.0, SVG Export Plug-In . SVG Version: 6.00 Build 0)  -->
<svg version="1.1" id="Слой_1" xmlns="http://www.w3.org/2000/svg" xmlns:xlink="http://www.w3.org/1999/xlink" x="0px" y="0px"
	 viewBox="0 0 175 76" style="enable-background:new 0 0 175 76;" xml:space="preserve">
<style type="text/css">
	.st0{fill:#FF0000;}
	.st1{fill:#00AD49;}
	.st2{fill:#FFFFFF;}
</style>
<g id="Слой_x0020_1">
	<g id="_308892856">
		<rect id="_308893240" x="-0.3" y="65" class="st0" width="161.1" height="10.9"/>
		<g>
			<path class="st1" d="M36.5,12.9c6.8,0.5,10.5-1.3,9,10.3c-0.1,0.3,0.3,0.3,0.4,0C48,14.3,49.2,13,58.6,12.8
				c0.4-0.1,0.4-0.5,0-0.5C46.7,11.5,49.1,8,49.2,3c0-0.3-0.3-0.3-0.4,0c-2.2,10.4-5.7,8.9-12.4,9.5C36.2,12.5,36.1,12.9,36.5,12.9z
				"/>
			<path class="st1" d="M36.2,44.1c3.5,0,7.5-0.3,10.3-2.6c2.8-2.3,3.7-6.4,4.4-10.2l1.1-6.2H39.1l-1.5,8.5l-0.1-0.2
				c-1.9-4.5-6.2-7-10.8-7.9c-2.8-0.6-4.8-0.5-7.5-0.5H6.1L0.6,56.9c0,0,13.1,0,13,0h2.5c7.5-0.3,14.4-3.4,18.9-9.5l-1.6,9.5h13.2
				c0.4-2.5,1.1-6.3-0.9-9.3c-2.2-3.2-6.1-2.9-9.5-3.1C35.7,44.4,35.8,44.1,36.2,44.1z M23.7,37.4c-0.2,1.3-1.1,7-1.5,8.1
				c-1.1,3.1-4.3,3.6-7.2,3.6l2.8-16.7C21.2,32.4,24.4,33.3,23.7,37.4z"/>
			<path class="st1" d="M153,25.2h-18.7l-4.4,25.6l-4.1-25.6h-18.4l-4.3,8.6l1.5-8.6H76.1l-0.5,2.9c-2.7-4-9.2-4.2-13.8-3.5
				c-4.7,0.7-9.9,3.8-11,9c-1,4.8,0.2,8.2,4.9,9.7c3.6,1.2,6.3,0.2,9.2,2.5c2,1.5-0.2,4.2-2.3,4.1c-2.8-0.2-3.2-3.2-3.2-5.4
				c-5.7,1-9.8,3-11.9,9c4.6,5.5,18.2,5.6,23.4,3c6.1-3.1,10.4-9.9,6.5-15.3c-1.8-2.5-4.8-3.7-7.7-4.4c-1.4-0.3-6.5-1.1-7.1-2.8
				c-0.9-2.6,5.5-3.7,5.3-0.2h14.2l-3.9,23.1H91l3.9-23.1h8L91.4,56.9v0.2h14.4l2-5.1h8.7l0.2,5.1h25l2-11.6h1.8
				c6.8,0.6,0.2,6.7,3.3,11.6h12.5c-0.7-1.3-0.9-2.7-0.8-4.1c0.5-5.8,3.2-10.5-4.3-12.2c3.2-0.6,6.1-2.4,7.2-5.6
				C165.9,27.9,159,25.3,153,25.2z M110.2,44.4l5-12.9l0.6,12.9H110.2z M147.3,38h-2.7l0,0.1V38h0l1-5.6c1.4,0,3.4-0.3,4.5,0.5
				C151.9,34.3,150.5,38,147.3,38z"/>
		</g>
		<polygon id="_308893096" points="-0.1,60.6 161,60.6 160.9,61.7 -0.2,61.7 		"/>
		<path id="_308893024" d="M174.9,27.4c0,1.2-0.4,2.2-1.2,3s-1.8,1.2-3,1.2s-2.2-0.4-3-1.2c-0.8-0.8-1.2-1.8-1.2-3s0.4-2.2,1.2-3
			s1.8-1.2,3-1.2s2.2,0.4,3,1.2C174.5,25.3,174.9,26.3,174.9,27.4z M174.2,27.4c0-1-0.3-1.8-1-2.5s-1.5-1.1-2.5-1.1
			s-1.8,0.4-2.5,1.1s-1.1,1.5-1.1,2.5s0.4,1.8,1.1,2.5c0.7,0.7,1.5,1.1,2.5,1.1s1.8-0.4,2.5-1.1C173.9,29.3,174.2,28.4,174.2,27.4z
			 M172.7,29.6H172c-0.3-0.9-0.5-1.5-0.7-1.7s-0.5-0.3-0.9-0.3c-0.2,0-0.4,0-0.5,0c0,0.8,0,1.4,0,2h-0.7c0-0.7,0.1-1.5,0.1-2.4
			c0-0.8,0-1.5-0.1-2.2h0.5c0,0,0.1,0,0.3,0s0.4,0,0.6,0c1,0,1.5,0.4,1.5,1.1c0,0.6-0.3,1-0.9,1.2l0,0c0.3,0.1,0.5,0.2,0.6,0.5
			C172.2,28.1,172.4,28.6,172.7,29.6z M171.6,26.3c0-0.5-0.4-0.8-1.1-0.8c-0.3,0-0.5,0-0.6,0c0,0.4,0,0.9,0,1.6c0.1,0,0.2,0,0.3,0
			C171.2,27.1,171.6,26.8,171.6,26.3z"/>
		<path id="_308892880" class="st2" d="M2.5,73.8V67h2.2c0.8,0,1.4,0,1.6,0.1c0.4,0.1,0.7,0.3,1,0.7c0.3,0.3,0.4,0.8,0.4,1.3
			c0,0.4-0.1,0.8-0.2,1c-0.2,0.3-0.3,0.5-0.6,0.7c-0.2,0.2-0.5,0.3-0.7,0.3c-0.3,0.1-0.8,0.1-1.4,0.1h-1v2.5H2.5V73.8z M3.8,68.2
			v1.9h0.7c0.5,0,0.9,0,1.1-0.1s0.3-0.2,0.4-0.3c0.1-0.2,0.2-0.3,0.2-0.5S6.1,68.8,6,68.6s-0.3-0.3-0.5-0.3s-0.5,0-1,0L3.8,68.2
			L3.8,68.2z M8.8,73.8V67h2.9c0.7,0,1.2,0.1,1.6,0.2c0.3,0.1,0.6,0.3,0.8,0.6c0.2,0.3,0.3,0.7,0.3,1.1c0,0.5-0.1,0.9-0.4,1.3
			c-0.3,0.3-0.7,0.5-1.3,0.6c0.3,0.2,0.5,0.4,0.7,0.6s0.4,0.6,0.8,1.1l0.8,1.3h-1.6l-1-1.5c-0.4-0.5-0.6-0.9-0.7-1
			c-0.1-0.1-0.3-0.2-0.4-0.3c-0.4,0-0.6,0-0.9,0h-0.3v2.8C10.1,73.8,8.8,73.8,8.8,73.8z M10.1,69.9h1c0.7,0,1.1,0,1.2-0.1
			c0.2-0.1,0.3-0.2,0.4-0.3c0.1-0.1,0.1-0.3,0.1-0.5s-0.1-0.4-0.2-0.6c-0.1-0.1-0.3-0.2-0.5-0.3c-0.1,0-0.4,0-1,0H10v1.8H10.1z
			 M15.3,70.4c0-0.7,0.1-1.3,0.3-1.7c0.2-0.3,0.4-0.7,0.6-0.9c0.3-0.3,0.6-0.5,0.9-0.6c0.4-0.2,0.9-0.3,1.5-0.3c1,0,1.8,0.3,2.4,0.9
			s0.9,1.5,0.9,2.6S21.6,72.3,21,73c-0.6,0.6-1.4,0.9-2.4,0.9s-1.8-0.3-2.4-0.9S15.3,71.5,15.3,70.4z M16.7,70.4
			c0,0.8,0.2,1.3,0.5,1.7c0.4,0.4,0.8,0.6,1.3,0.6s1-0.2,1.3-0.6s0.5-1,0.5-1.8s-0.2-1.4-0.5-1.7C19.5,68.2,19,68,18.4,68
			s-1,0.2-1.4,0.6C16.9,69,16.7,69.6,16.7,70.4L16.7,70.4z M22.9,73.8V67h4.6v1.1h-3.3v1.6H27v1.1h-2.8v2.9
			C24.3,73.8,22.9,73.8,22.9,73.8z M28.7,73.8V67h5v1.1H30v1.5h3.4v1.1H30v1.8h3.8v1.1C33.8,73.8,28.7,73.8,28.7,73.8z M34.6,71.6
			l1.3-0.1c0.1,0.4,0.2,0.8,0.5,1c0.2,0.2,0.6,0.3,1,0.3s0.8-0.1,1-0.3c0.2-0.2,0.3-0.4,0.3-0.7c0-0.2,0-0.3-0.1-0.4
			s-0.3-0.2-0.5-0.3c-0.2-0.1-0.5-0.2-1.1-0.3c-0.7-0.2-1.2-0.4-1.5-0.7c-0.4-0.4-0.6-0.8-0.6-1.4c0-0.3,0.1-0.7,0.3-1
			s0.5-0.5,0.8-0.7c0.4-0.2,0.8-0.2,1.3-0.2c0.8,0,1.5,0.2,1.9,0.6s0.7,0.9,0.7,1.5L38.5,69c-0.1-0.3-0.2-0.6-0.4-0.7
			C38,68.1,37.7,68,37.3,68s-0.7,0.1-0.9,0.2c-0.1,0.1-0.2,0.2-0.2,0.4c0,0.2,0.1,0.3,0.2,0.4c0.2,0.1,0.6,0.3,1.3,0.5
			s1.2,0.3,1.5,0.5s0.6,0.4,0.7,0.7c0.2,0.3,0.3,0.6,0.3,1.1c0,0.4-0.1,0.7-0.3,1.1c-0.2,0.3-0.5,0.6-0.9,0.8
			c-0.4,0.2-0.9,0.2-1.5,0.2c-0.9,0-1.5-0.2-2-0.6C35,72.9,34.7,72.3,34.6,71.6L34.6,71.6z M40.9,71.6l1.3-0.1
			c0.1,0.4,0.2,0.8,0.5,1c0.2,0.2,0.6,0.3,1,0.3s0.8-0.1,1-0.3c0.2-0.2,0.3-0.4,0.3-0.7c0-0.2,0-0.3-0.1-0.4s-0.3-0.2-0.5-0.3
			c-0.2-0.1-0.5-0.2-1.1-0.3c-0.7-0.2-1.2-0.4-1.5-0.7c-0.4-0.4-0.6-0.8-0.6-1.4c0-0.3,0.1-0.7,0.3-1s0.5-0.5,0.8-0.7
			c0.4-0.2,0.8-0.2,1.3-0.2c0.8,0,1.5,0.2,1.9,0.6s0.7,0.9,0.7,1.5L44.8,69c-0.1-0.3-0.2-0.6-0.4-0.7C44.3,68.1,44,68,43.6,68
			s-0.7,0.1-0.9,0.2c-0.1,0.1-0.2,0.2-0.2,0.4c0,0.2,0.1,0.3,0.2,0.4c0.2,0.1,0.6,0.3,1.3,0.5s1.2,0.3,1.5,0.5s0.6,0.4,0.7,0.7
			c0.2,0.3,0.3,0.6,0.3,1.1c0,0.4-0.1,0.7-0.3,1.1c-0.2,0.3-0.5,0.6-0.9,0.8c-0.4,0.2-0.9,0.2-1.5,0.2c-0.9,0-1.5-0.2-2-0.6
			C41.3,72.9,41,72.3,40.9,71.6L40.9,71.6z M47.5,73.8V67h1.4v6.8H47.5z M49.9,70.4c0-0.7,0.1-1.3,0.3-1.7c0.2-0.3,0.4-0.7,0.6-0.9
			c0.3-0.3,0.6-0.5,0.9-0.6c0.4-0.2,0.9-0.3,1.5-0.3c1,0,1.8,0.3,2.4,0.9c0.6,0.6,0.9,1.5,0.9,2.6s-0.3,1.9-0.9,2.6
			c-0.6,0.6-1.4,0.9-2.4,0.9s-1.8-0.3-2.4-0.9C50.2,72.4,49.9,71.5,49.9,70.4z M51.3,70.4c0,0.8,0.2,1.3,0.5,1.7
			c0.4,0.4,0.8,0.6,1.3,0.6s1-0.2,1.3-0.6s0.5-1,0.5-1.8s-0.2-1.4-0.5-1.7C54.1,68.2,53.6,68,53,68c-0.6,0-1,0.2-1.4,0.6
			C51.4,69,51.3,69.6,51.3,70.4L51.3,70.4z M57.5,73.8V67h1.3l2.8,4.5V67h1.3v6.8h-1.4l-2.7-4.4v4.4H57.5z M70.4,73.8h-1.5l-0.6-1.5
			h-2.7L65,73.8h-1.4l2.6-6.8h1.4L70.4,73.8L70.4,73.8z M67.9,71.1L67,68.6l-1,2.5H67.9L67.9,71.1z M71.1,73.8v-6.7h1.4v5.6h3.4v1.1
			H71.1z M79.3,67h2.5c0.6,0,1,0,1.3,0.1c0.4,0.1,0.7,0.3,1,0.6c0.3,0.3,0.5,0.7,0.6,1.1s0.2,1,0.2,1.6s-0.1,1-0.2,1.4
			c-0.2,0.5-0.4,0.9-0.7,1.2c-0.2,0.2-0.6,0.4-1,0.5c-0.3,0.1-0.7,0.1-1.2,0.1h-2.6L79.3,67L79.3,67z M80.7,68.2v4.5h1
			c0.4,0,0.7,0,0.8-0.1c0.2-0.1,0.4-0.1,0.6-0.3c0.1-0.1,0.3-0.4,0.4-0.7c0.1-0.3,0.1-0.7,0.1-1.2s0-0.9-0.1-1.2
			c-0.1-0.3-0.2-0.5-0.4-0.7c-0.2-0.2-0.4-0.3-0.6-0.3s-0.6-0.1-1.1-0.1L80.7,68.2L80.7,68.2z M86.1,73.8V67h1.4v6.8H86.1z
			 M94.8,73.8h-1.5l-0.6-1.5H90l-0.6,1.5H88l2.6-6.8H92L94.8,73.8z M92.3,71.1l-0.9-2.5l-0.9,2.5H92.3z M95.5,73.8V67h2l1.2,4.6
			L100,67h2v6.8h-1.3v-5.3l-1.3,5.3h-1.3l-1.3-5.3v5.3H95.5L95.5,73.8z M103.1,70.4c0-0.7,0.1-1.3,0.3-1.7c0.2-0.3,0.4-0.7,0.6-0.9
			c0.3-0.3,0.6-0.5,0.9-0.6c0.4-0.2,0.9-0.3,1.5-0.3c1,0,1.8,0.3,2.4,0.9s0.9,1.5,0.9,2.6s-0.3,1.9-0.9,2.6
			c-0.6,0.6-1.4,0.9-2.4,0.9s-1.8-0.3-2.4-0.9S103.1,71.5,103.1,70.4L103.1,70.4z M104.5,70.4c0,0.8,0.2,1.3,0.5,1.7
			c0.4,0.4,0.8,0.6,1.3,0.6s1-0.2,1.3-0.6s0.5-1,0.5-1.8s-0.2-1.4-0.5-1.7c-0.3-0.4-0.8-0.6-1.4-0.6s-1,0.2-1.4,0.6
			C104.7,69,104.5,69.6,104.5,70.4L104.5,70.4z M110.8,73.8V67h1.3l2.8,4.5V67h1.3v6.8h-1.4l-2.7-4.4v4.4H110.8L110.8,73.8z
			 M117.6,67h2.5c0.6,0,1,0,1.3,0.1c0.4,0.1,0.7,0.3,1,0.6c0.3,0.3,0.5,0.7,0.6,1.1s0.2,1,0.2,1.6s-0.1,1-0.2,1.4
			c-0.2,0.5-0.4,0.9-0.7,1.2c-0.2,0.2-0.6,0.4-1,0.5c-0.3,0.1-0.7,0.1-1.2,0.1h-2.6L117.6,67L117.6,67z M118.9,68.2v4.5h1
			c0.4,0,0.7,0,0.8-0.1c0.2-0.1,0.4-0.1,0.6-0.3c0.1-0.1,0.3-0.4,0.4-0.7c0.1-0.3,0.1-0.7,0.1-1.2s0-0.9-0.1-1.2
			c-0.1-0.3-0.2-0.5-0.4-0.7c-0.2-0.2-0.4-0.3-0.6-0.3s-0.6-0.1-1.1-0.1L118.9,68.2L118.9,68.2z M128.5,73.8v-5.6h-2V67h5.4v1.1h-2
			v5.6h-1.4V73.8z M132.3,70.4c0-0.7,0.1-1.3,0.3-1.7c0.2-0.3,0.4-0.7,0.6-0.9c0.3-0.3,0.6-0.5,0.9-0.6c0.4-0.2,0.9-0.3,1.5-0.3
			c1,0,1.8,0.3,2.4,0.9c0.6,0.6,0.9,1.5,0.9,2.6s-0.3,1.9-0.9,2.6c-0.6,0.6-1.4,0.9-2.4,0.9s-1.8-0.3-2.4-0.9
			C132.6,72.4,132.3,71.5,132.3,70.4z M133.7,70.4c0,0.8,0.2,1.3,0.5,1.7c0.4,0.4,0.8,0.6,1.3,0.6s1-0.2,1.3-0.6s0.5-1,0.5-1.8
			s-0.2-1.4-0.5-1.7c-0.3-0.4-0.8-0.6-1.4-0.6c-0.6,0-1,0.2-1.4,0.6C133.9,69,133.7,69.6,133.7,70.4L133.7,70.4z M139.6,70.4
			c0-0.7,0.1-1.3,0.3-1.7c0.2-0.3,0.4-0.7,0.6-0.9c0.3-0.3,0.6-0.5,0.9-0.6c0.4-0.2,0.9-0.3,1.5-0.3c1,0,1.8,0.3,2.4,0.9
			c0.6,0.6,0.9,1.5,0.9,2.6s-0.3,1.9-0.9,2.6c-0.6,0.6-1.4,0.9-2.4,0.9s-1.8-0.3-2.4-0.9C139.9,72.4,139.6,71.5,139.6,70.4z
			 M141,70.4c0,0.8,0.2,1.3,0.5,1.7c0.4,0.4,0.8,0.6,1.3,0.6s1-0.2,1.3-0.6s0.5-1,0.5-1.8s-0.2-1.4-0.5-1.7
			c-0.3-0.4-0.8-0.6-1.4-0.6c-0.6,0-1,0.2-1.4,0.6C141.2,69,141,69.6,141,70.4L141,70.4z M147.3,73.8v-6.7h1.4v5.6h3.4v1.1H147.3
			L147.3,73.8z M152.7,71.6l1.3-0.1c0.1,0.4,0.2,0.8,0.5,1c0.2,0.2,0.6,0.3,1,0.3s0.8-0.1,1-0.3c0.2-0.2,0.3-0.4,0.3-0.7
			c0-0.2,0-0.3-0.1-0.4s-0.3-0.2-0.5-0.3c-0.2-0.1-0.5-0.2-1.1-0.3c-0.7-0.2-1.2-0.4-1.5-0.7c-0.4-0.4-0.6-0.8-0.6-1.4
			c0-0.3,0.1-0.7,0.3-1s0.5-0.5,0.8-0.7c0.4-0.2,0.8-0.2,1.3-0.2c0.8,0,1.5,0.2,1.9,0.6s0.7,0.9,0.7,1.5l-1.4,0.1
			c-0.1-0.3-0.2-0.6-0.4-0.7c-0.2-0.2-0.5-0.2-0.9-0.2s-0.7,0.1-0.9,0.2c-0.1,0.1-0.2,0.2-0.2,0.4c0,0.2,0.1,0.3,0.2,0.4
			c0.2,0.1,0.6,0.3,1.3,0.5s1.2,0.3,1.5,0.5s0.6,0.4,0.7,0.7c0.2,0.3,0.3,0.6,0.3,1.1c0,0.4-0.1,0.7-0.3,1.1
			c-0.2,0.3-0.5,0.6-0.9,0.8c-0.4,0.2-0.9,0.2-1.5,0.2c-0.9,0-1.5-0.2-2-0.6C153,72.9,152.8,72.3,152.7,71.6L152.7,71.6z"/>
	</g>
</g>
</svg>
