<?xml version="1.0" encoding="utf-8"?>
<!-- Generator: Adobe Illustrator 17.0.0, SVG Export Plug-In . SVG Version: 6.00 Build 0)  -->
<!DOCTYPE svg PUBLIC "-//W3C//DTD SVG 1.1//EN" "http://www.w3.org/Graphics/SVG/1.1/DTD/svg11.dtd">
<svg version="1.1" id="Layer_1" xmlns="http://www.w3.org/2000/svg" xmlns:xlink="http://www.w3.org/1999/xlink" x="0px" y="0px"
	 width="290px" height="80px" viewBox="0 0 290 80" style="enable-background:new 0 0 290 80;" xml:space="preserve">
<style type="text/css">
	.st0{fill:#00013A;}
	.st1{fill:#CD163F;}
</style>
<g>
	<path class="st0" d="M71.6,57.1L72.7,31h-0.4L61.8,57.1h-9.6L41.6,31h-0.3l1.1,26.1h-11V23h11.2c4.5,0,7.3,2.8,8.7,6.4l5.6,15h0.4
		l5.3-15c1.3-3.6,4.1-6.4,8.7-6.4h11.6v34.1H71.6z"/>
	<path class="st0" d="M104.7,35.8c0,0.4,0.2,0.7,1,0.8c1.1,0.2,1.7-0.5,2.8-1.5c1-1,0.6-0.4,10.2-12.1h13.4l-14.6,16.7l15.8,17.3
		h-13.7c0,0-10.8-12.4-11.5-13.2c-0.8-0.9-1.7-1-2.3-1c-0.9,0.1-1,0.5-1,0.8c0,0.2,0,13.4,0,13.4h-11V23h11
		C104.7,23,104.7,35.5,104.7,35.8z"/>
	<g>
		<g>
			<path class="st1" d="M183.3-0.1c0,0,0,14.6,0,15.2c0,0.9,0.1,2.4,0.6,3.5c0.4,0.9,1.7,2.2,1.7,2.2l19,19.1L185.5,59
				c0,0-1,1-1.5,2c-0.5,1-0.7,2.2-0.7,3.8c0,0.8,0,14.9,0,14.9l39.9-39.9L183.3-0.1z"/>
			<path class="st0" d="M180.4,61.1c-0.5-1-1.5-2.1-1.5-2.1l-19.2-19.2l19-19c0,0,1.2-1.3,1.7-2.3c0.6-1.1,0.6-2.8,0.6-3.4
				c0-0.8,0-15.2,0-15.2l-39.9,39.9l39.9,39.9c0,0,0-14.2,0-14.9C181.1,63.6,181,62.1,180.4,61.1z"/>
		</g>
		<g>
			<circle class="st0" cx="182.2" cy="39.6" r="9.2"/>
		</g>
	</g>
	<g>
		<path class="st0" d="M9.8,34.2c-0.5,1.2-0.5,2.5-0.5,2.5v20.5h11V23l-9.2,9.2C11.2,32.2,10.3,33.1,9.8,34.2z"/>
		
			<rect x="2.8" y="15.3" transform="matrix(0.7071 -0.7071 0.7071 0.7071 -12.6804 12.9272)" class="st1" width="12.9" height="12.9"/>
	</g>
	<g>
		<path class="st0" d="M235.5,23.5v5.1h-0.8v-5.1H235.5z"/>
		<path class="st0" d="M241,23.5v5.1h-0.8v-2.4h-2.8v2.4h-0.8v-5.1h0.8v2.1h2.8v-2.1H241z"/>
		<path class="st0" d="M246.5,23.5v5.1h-0.8v-2.4h-2.8v2.4h-0.8v-5.1h0.8v2.1h2.8v-2.1H246.5z"/>
		<path class="st0" d="M253.1,26c0,0.4-0.1,0.8-0.2,1.1c-0.1,0.3-0.3,0.6-0.6,0.8c-0.3,0.2-0.6,0.4-0.9,0.5
			c-0.3,0.1-0.7,0.2-1.1,0.2c-0.4,0-0.8-0.1-1.1-0.2c-0.3-0.1-0.6-0.3-0.9-0.5c-0.3-0.2-0.5-0.5-0.6-0.8c-0.1-0.3-0.2-0.7-0.2-1.1
			c0-0.4,0.1-0.8,0.2-1.1c0.1-0.3,0.3-0.6,0.6-0.8c0.3-0.2,0.6-0.4,0.9-0.5c0.3-0.1,0.7-0.2,1.1-0.2c0.4,0,0.8,0.1,1.1,0.2
			c0.3,0.1,0.6,0.3,0.9,0.5c0.3,0.2,0.5,0.5,0.6,0.8C253,25.3,253.1,25.7,253.1,26z M248.2,26c0,0.3,0.1,0.6,0.2,0.9
			c0.1,0.3,0.3,0.5,0.4,0.6c0.2,0.2,0.4,0.3,0.7,0.4c0.2,0.1,0.5,0.1,0.8,0.1c0.3,0,0.5,0,0.8-0.1c0.2-0.1,0.5-0.2,0.7-0.4
			c0.2-0.2,0.3-0.4,0.4-0.6c0.1-0.3,0.2-0.5,0.2-0.9c0-0.3-0.1-0.6-0.2-0.9c-0.1-0.3-0.3-0.5-0.4-0.6c-0.2-0.2-0.4-0.3-0.7-0.4
			s-0.5-0.1-0.8-0.1c-0.3,0-0.5,0-0.8,0.1c-0.2,0.1-0.5,0.2-0.7,0.4c-0.2,0.2-0.3,0.4-0.4,0.6C248.2,25.4,248.2,25.7,248.2,26z"/>
		<path class="st0" d="M255.8,23.5c0.2,0,0.5,0,0.7,0.1c0.2,0,0.4,0.1,0.6,0.2c0.2,0.1,0.3,0.3,0.4,0.4c0.1,0.2,0.1,0.4,0.1,0.6
			c0,0.2,0,0.4-0.1,0.5c-0.1,0.2-0.2,0.3-0.4,0.4v0c0.6,0.3,0.9,0.7,0.9,1.3c0,0.2-0.1,0.4-0.2,0.6c-0.1,0.2-0.2,0.3-0.4,0.5
			c-0.2,0.1-0.4,0.2-0.6,0.3c-0.2,0.1-0.5,0.1-0.7,0.1H254v-5.1H255.8z M254.8,28h1.3c0.2,0,0.3,0,0.4,0s0.3-0.1,0.4-0.1
			c0.1-0.1,0.2-0.2,0.3-0.3c0.1-0.1,0.1-0.2,0.1-0.4c0-0.3-0.1-0.5-0.3-0.7c-0.2-0.2-0.5-0.2-0.8-0.2h-1.4V28z M254.8,25.6h1.2
			c0.3,0,0.5-0.1,0.7-0.2c0.2-0.1,0.2-0.3,0.2-0.5c0-0.3-0.1-0.5-0.3-0.6c-0.2-0.1-0.4-0.2-0.7-0.2h-1.2V25.6z"/>
		<path class="st0" d="M261.6,23.5l2.2,5.1H263l-0.7-1.6h-2.4l-0.7,1.6h-0.8l2.3-5.1H261.6z M260.1,26.4h1.9l-0.9-2.2h-0.1
			L260.1,26.4z"/>
		<path class="st0" d="M265.4,23.5V28h2.7v-4.5h0.8V28h0.6l-0.1,1.7h-0.6l-0.1-1.1h-4.1v-5.1H265.4z"/>
		<path class="st0" d="M271.1,23.5v5.1h-0.8v-5.1H271.1z"/>
		<path class="st0" d="M271.7,22.1c0.2,0,0.3,0,0.4,0.1c0.1,0.1,0.1,0.2,0.1,0.3c0,0.1,0,0.2-0.1,0.3c-0.1,0.1-0.2,0.1-0.4,0.1
			c-0.2,0-0.3,0-0.4-0.1c-0.1-0.1-0.1-0.2-0.1-0.3c0-0.1,0-0.3,0.1-0.3C271.4,22.1,271.5,22.1,271.7,22.1z M273,23.5v5.1h-0.8v-5.1
			H273z M273.5,22.1c0.2,0,0.3,0,0.4,0.1c0.1,0.1,0.1,0.2,0.1,0.3c0,0.1,0,0.2-0.1,0.3c-0.1,0.1-0.2,0.1-0.4,0.1
			c-0.2,0-0.3,0-0.4-0.1c-0.1-0.1-0.1-0.2-0.1-0.3c0-0.1,0-0.3,0.1-0.3C273.2,22.1,273.3,22.1,273.5,22.1z"/>
	</g>
	<g>
		<path class="st0" d="M235.7,37.3l1.6,2.3l1.6-2.3h0.9v5.1h-0.7v-2.9l0-1.3H239l-1.6,2.3h-0.3l-1.6-2.3h-0.1l0,1.3v2.9h-0.7v-5.1
			H235.7z"/>
		<path class="st0" d="M241,37.3h3.4v0.6h-2.6v1.5h2.3v0.6h-2.3v1.7h2.7v0.6H241V37.3z"/>
		<path class="st0" d="M249.8,37.3v5.1H249V40h-2.8v2.4h-0.8v-5.1h0.8v2.1h2.8v-2.1H249.8z"/>
		<path class="st0" d="M250.9,37.3h3.4v0.6h-2.6v1.5h2.3v0.6h-2.3v1.7h2.7v0.6h-3.5V37.3z"/>
		<path class="st0" d="M259.9,37.3v4.5h0.6l-0.1,1.7h-0.6l-0.1-1.1h-3.9l-0.1,1.1H255v-1.7c0.1,0,0.2,0,0.3-0.1
			c0.1,0,0.2-0.1,0.2-0.1c0.1-0.1,0.2-0.3,0.3-0.4c0.1-0.2,0.2-0.4,0.2-0.6c0.1-0.2,0.1-0.5,0.1-0.7c0-0.3,0-0.5,0-0.8v-1.6H259.9z
			 M257,37.9v0.9c0,0.7-0.1,1.3-0.2,1.8c-0.1,0.5-0.3,0.9-0.6,1.2h2.9v-3.9H257z"/>
		<path class="st0" d="M265.2,37.3v1.9h0.9l0.7-1.4c0.1-0.2,0.3-0.4,0.5-0.5s0.4-0.2,0.6-0.2c0.2,0,0.4,0,0.6,0.1l-0.1,0.6
			c-0.1,0-0.2,0-0.3,0c-0.1,0-0.3,0-0.4,0.1s-0.2,0.2-0.3,0.3l-0.6,1.2l1.9,2.9h-0.9l-1.6-2.6h-0.9v2.6h-0.8v-2.6h-0.9l-1.6,2.6
			h-0.9l1.9-2.9l-0.6-1.2c-0.1-0.2-0.2-0.3-0.3-0.3c-0.1-0.1-0.3-0.1-0.4-0.1c-0.1,0-0.2,0-0.3,0l-0.1-0.6c0.2-0.1,0.4-0.1,0.6-0.1
			c0.2,0,0.4,0.1,0.6,0.2c0.2,0.1,0.3,0.3,0.5,0.5l0.7,1.4h0.9v-1.9H265.2z"/>
		<path class="st0" d="M270.5,37.3l1.6,2.3l1.6-2.3h0.9v5.1h-0.7v-2.9l0-1.3h-0.1l-1.6,2.3h-0.3l-1.6-2.3h-0.1l0,1.3v2.9h-0.7v-5.1
			H270.5z"/>
		<path class="st0" d="M275.8,37.3h3.4v0.6h-2.6v1.5h2.3v0.6h-2.3v1.7h2.7v0.6h-3.5V37.3z"/>
		<path class="st0" d="M284.6,37.3v5.1h-0.8V40H281v2.4h-0.8v-5.1h0.8v2.1h2.8v-2.1H284.6z"/>
		<path class="st0" d="M285.5,37.3h3.9v0.6h-1.6v4.5H287v-4.5h-1.6V37.3z"/>
	</g>
	<g>
		<path class="st0" d="M235.5,51.8v1.9h1.1l0.8-1.3c0.1-0.2,0.3-0.4,0.5-0.5c0.2-0.1,0.4-0.2,0.6-0.2c0.2,0,0.4,0,0.6,0.1l-0.1,0.6
			c-0.1,0-0.2,0-0.3,0c-0.1,0-0.3,0-0.4,0.1c-0.1,0.1-0.2,0.2-0.3,0.3l-0.8,1.2l2,3h-0.9l-1.7-2.6h-1.1v2.6h-0.8v-5.1H235.5z"/>
		<path class="st0" d="M245.3,54.3c0,0.4-0.1,0.8-0.2,1.1c-0.1,0.3-0.3,0.6-0.6,0.8c-0.3,0.2-0.6,0.4-0.9,0.5
			c-0.3,0.1-0.7,0.2-1.1,0.2c-0.4,0-0.8-0.1-1.1-0.2c-0.3-0.1-0.6-0.3-0.9-0.5c-0.3-0.2-0.5-0.5-0.6-0.8c-0.1-0.3-0.2-0.7-0.2-1.1
			c0-0.4,0.1-0.8,0.2-1.1c0.1-0.3,0.3-0.6,0.6-0.8c0.3-0.2,0.6-0.4,0.9-0.5c0.3-0.1,0.7-0.2,1.1-0.2c0.4,0,0.8,0.1,1.1,0.2
			c0.3,0.1,0.6,0.3,0.9,0.5c0.3,0.2,0.5,0.5,0.6,0.8C245.2,53.6,245.3,53.9,245.3,54.3z M240.4,54.3c0,0.3,0.1,0.6,0.2,0.9
			c0.1,0.3,0.3,0.5,0.4,0.6c0.2,0.2,0.4,0.3,0.7,0.4c0.2,0.1,0.5,0.1,0.8,0.1c0.3,0,0.5,0,0.8-0.1s0.5-0.2,0.7-0.4
			c0.2-0.2,0.3-0.4,0.4-0.6c0.1-0.3,0.2-0.5,0.2-0.9c0-0.3-0.1-0.6-0.2-0.9c-0.1-0.3-0.3-0.5-0.4-0.6c-0.2-0.2-0.4-0.3-0.7-0.4
			s-0.5-0.1-0.8-0.1c-0.3,0-0.5,0-0.8,0.1c-0.2,0.1-0.5,0.2-0.7,0.4c-0.2,0.2-0.3,0.4-0.4,0.6C240.4,53.7,240.4,54,240.4,54.3z"/>
		<path class="st0" d="M247.2,51.8l1.6,2.3l1.6-2.3h0.9v5.1h-0.7V54l0-1.3h-0.1l-1.6,2.3h-0.3l-1.6-2.3h-0.1l0,1.3v2.9h-0.7v-5.1
			H247.2z"/>
		<path class="st0" d="M255.2,51.8l2.2,5.1h-0.8l-0.7-1.6h-2.4l-0.7,1.6h-0.8l2.3-5.1H255.2z M253.8,54.7h1.9l-0.9-2.2h-0.1
			L253.8,54.7z"/>
		<path class="st0" d="M262.6,51.8v5.1h-0.8v-2.4H259v2.4h-0.8v-5.1h0.8v2.1h2.8v-2.1H262.6z"/>
		<path class="st0" d="M268.3,51.8v4.5h0.6l-0.1,1.7h-0.6l-0.1-1.1h-3.9l-0.1,1.1h-0.6v-1.7c0.1,0,0.2,0,0.3-0.1
			c0.1,0,0.2-0.1,0.2-0.1c0.1-0.1,0.2-0.3,0.3-0.4c0.1-0.2,0.2-0.4,0.2-0.6c0.1-0.2,0.1-0.5,0.1-0.7c0-0.3,0-0.5,0-0.8v-1.6H268.3z
			 M265.4,52.4v0.9c0,0.7-0.1,1.3-0.2,1.8s-0.3,0.9-0.6,1.2h2.9v-3.9H265.4z"/>
		<path class="st0" d="M272.5,51.8l2.2,5.1h-0.8l-0.7-1.6h-2.4l-0.7,1.6h-0.8l2.3-5.1H272.5z M271.1,54.7h1.9l-0.9-2.2H272
			L271.1,54.7z"/>
	</g>
</g>
</svg>
